<?xml version="1.0" encoding="UTF-8" standalone="no"?>
<!-- Uploaded to: SVG Repo, www.svgrepo.com, Generator: SVG Repo Mixer Tools -->

<svg
   width="800px"
   height="800px"
   viewBox="-22 0 300 300"
   version="1.1"
   preserveAspectRatio="xMidYMid"
   id="svg216"
   sodipodi:docname="orthanc.svg"
   xml:space="preserve"
   inkscape:version="1.2.2 (732a01da63, 2022-12-09)"
   xmlns:inkscape="http://www.inkscape.org/namespaces/inkscape"
   xmlns:sodipodi="http://sodipodi.sourceforge.net/DTD/sodipodi-0.dtd"
   xmlns="http://www.w3.org/2000/svg"
   xmlns:svg="http://www.w3.org/2000/svg"><defs
     id="defs220"><inkscape:path-effect
       effect="powerclip"
       id="path-effect3857"
       is_visible="true"
       lpeversion="1"
       inverse="true"
       flatten="false"
       hide_clip="false"
       message="Use fill-rule evenodd on &lt;b&gt;fill and stroke&lt;/b&gt; dialog if no flatten result after convert clip to paths." /><inkscape:path-effect
       effect="powerclip"
       id="path-effect3832"
       is_visible="true"
       lpeversion="1"
       inverse="true"
       flatten="false"
       hide_clip="false"
       message="Use fill-rule evenodd on &lt;b&gt;fill and stroke&lt;/b&gt; dialog if no flatten result after convert clip to paths." /><inkscape:path-effect
       effect="powerclip"
       id="path-effect3807"
       is_visible="true"
       lpeversion="1"
       inverse="true"
       flatten="false"
       hide_clip="false"
       message="Use fill-rule evenodd on &lt;b&gt;fill and stroke&lt;/b&gt; dialog if no flatten result after convert clip to paths." /><inkscape:path-effect
       effect="powerclip"
       id="path-effect2757"
       is_visible="true"
       lpeversion="1"
       inverse="true"
       flatten="false"
       hide_clip="false"
       message="Use fill-rule evenodd on &lt;b&gt;fill and stroke&lt;/b&gt; dialog if no flatten result after convert clip to paths." /><clipPath
       clipPathUnits="userSpaceOnUse"
       id="clipPath2753"><rect
         style="display:none;fill:#000000;stroke:#000000;stroke-width:0;stroke-dasharray:none;paint-order:fill markers stroke"
         id="rect2755"
         width="339.61523"
         height="34.930397"
         x="-41.807617"
         y="132.53481"
         ry="3.5498371"
         rx="0"
         d="m -38.25778,132.53481 h 332.51556 c 1.96661,0 3.54984,1.58322 3.54984,3.54983 v 27.83073 c 0,1.9666 -1.58323,3.54983 -3.54984,3.54983 H -38.25778 c -1.96661,0 -3.549837,-1.58323 -3.549837,-3.54983 v -27.83073 c 0,-1.96661 1.583227,-3.54983 3.549837,-3.54983 z" /><path
         id="lpe_path-effect2757"
         style="fill:#000000;stroke:#000000;stroke-width:0;stroke-dasharray:none;paint-order:fill markers stroke"
         class="powerclip"
         d="M -21.639631,0.36036873 H 277.63963 V 299.63963 H -21.639631 Z M -38.25778,132.53481 c -1.96661,0 -3.549837,1.58322 -3.549837,3.54983 v 27.83073 c 0,1.9666 1.583227,3.54983 3.549837,3.54983 h 332.51556 c 1.96661,0 3.54984,-1.58323 3.54984,-3.54983 v -27.83073 c 0,-1.96661 -1.58323,-3.54983 -3.54984,-3.54983 z" /></clipPath><clipPath
       clipPathUnits="userSpaceOnUse"
       id="clipPath3768"><rect
         style="fill:#ffff00;fill-opacity:1;stroke:#2261ae;stroke-width:0;stroke-dasharray:none;stroke-opacity:1;paint-order:fill markers stroke"
         id="rect3770"
         width="128.72595"
         height="128.00481"
         x="145.30769"
         y="5.0480766"
         ry="0" /></clipPath><clipPath
       clipPathUnits="userSpaceOnUse"
       id="clipath_lpe_path-effect3807"><rect
         style="display:none;fill:#000000;stroke:#000000;stroke-width:0;stroke-dasharray:none;paint-order:fill markers stroke"
         id="rect3809"
         width="339.61523"
         height="34.930397"
         x="-41.807617"
         y="132.53481"
         ry="3.5498371"
         rx="0"
         d="m -38.25778,132.53481 h 332.51556 c 1.96661,0 3.54984,1.58322 3.54984,3.54983 v 27.83073 c 0,1.9666 -1.58323,3.54983 -3.54984,3.54983 H -38.25778 c -1.96661,0 -3.549837,-1.58323 -3.549837,-3.54983 v -27.83073 c 0,-1.96661 1.583227,-3.54983 3.549837,-3.54983 z" /><path
         id="lpe_path-effect3807"
         style="fill:#000000;stroke:#000000;stroke-width:0;stroke-dasharray:none;paint-order:fill markers stroke"
         class="powerclip"
         d="M -21.639631,0.36036873 H 277.63963 V 299.63963 H -21.639631 Z M -38.25778,132.53481 c -1.96661,0 -3.549837,1.58322 -3.549837,3.54983 v 27.83073 c 0,1.9666 1.583227,3.54983 3.549837,3.54983 h 332.51556 c 1.96661,0 3.54984,-1.58323 3.54984,-3.54983 v -27.83073 c 0,-1.96661 -1.58323,-3.54983 -3.54984,-3.54983 z" /></clipPath><clipPath
       clipPathUnits="userSpaceOnUse"
       id="clipath_lpe_path-effect3832"><rect
         style="display:none;fill:#000000;stroke:#000000;stroke-width:0;stroke-dasharray:none;paint-order:fill markers stroke"
         id="rect3834"
         width="339.61523"
         height="34.930397"
         x="-41.807617"
         y="132.53481"
         ry="3.5498371"
         rx="0"
         d="m -38.25778,132.53481 h 332.51556 c 1.96661,0 3.54984,1.58322 3.54984,3.54983 v 27.83073 c 0,1.9666 -1.58323,3.54983 -3.54984,3.54983 H -38.25778 c -1.96661,0 -3.549837,-1.58323 -3.549837,-3.54983 v -27.83073 c 0,-1.96661 1.583227,-3.54983 3.549837,-3.54983 z" /><path
         id="lpe_path-effect3832"
         style="fill:#000000;stroke:#000000;stroke-width:0;stroke-dasharray:none;paint-order:fill markers stroke"
         class="powerclip"
         d="M -21.639631,0.36036873 H 277.63963 V 299.63963 H -21.639631 Z M -38.25778,132.53481 c -1.96661,0 -3.549837,1.58322 -3.549837,3.54983 v 27.83073 c 0,1.9666 1.583227,3.54983 3.549837,3.54983 h 332.51556 c 1.96661,0 3.54984,-1.58323 3.54984,-3.54983 v -27.83073 c 0,-1.96661 -1.58323,-3.54983 -3.54984,-3.54983 z" /></clipPath><clipPath
       clipPathUnits="userSpaceOnUse"
       id="clipath_lpe_path-effect3857"><rect
         style="display:none;fill:#000000;stroke:#000000;stroke-width:0;stroke-dasharray:none;paint-order:fill markers stroke"
         id="rect3859"
         width="339.61523"
         height="34.930397"
         x="-41.807617"
         y="132.53481"
         ry="3.5498371"
         rx="0"
         d="m -38.25778,132.53481 h 332.51556 c 1.96661,0 3.54984,1.58322 3.54984,3.54983 v 27.83073 c 0,1.9666 -1.58323,3.54983 -3.54984,3.54983 H -38.25778 c -1.96661,0 -3.549837,-1.58323 -3.549837,-3.54983 v -27.83073 c 0,-1.96661 1.583227,-3.54983 3.549837,-3.54983 z" /><path
         id="lpe_path-effect3857"
         style="fill:#000000;stroke:#000000;stroke-width:0;stroke-dasharray:none;paint-order:fill markers stroke"
         class="powerclip"
         d="M -21.639631,0.36036873 H 277.63963 V 299.63963 H -21.639631 Z M -38.25778,132.53481 c -1.96661,0 -3.549837,1.58322 -3.549837,3.54983 v 27.83073 c 0,1.9666 1.583227,3.54983 3.549837,3.54983 h 332.51556 c 1.96661,0 3.54984,-1.58323 3.54984,-3.54983 v -27.83073 c 0,-1.96661 -1.58323,-3.54983 -3.54984,-3.54983 z" /></clipPath></defs><sodipodi:namedview
     id="namedview218"
     pagecolor="#ffffff"
     bordercolor="#000000"
     borderopacity="0.25"
     inkscape:showpageshadow="2"
     inkscape:pageopacity="0.0"
     inkscape:pagecheckerboard="0"
     inkscape:deskcolor="#d1d1d1"
     showgrid="false"
     inkscape:zoom="0.36769553"
     inkscape:cx="637.75592"
     inkscape:cy="796.85495"
     inkscape:window-width="1920"
     inkscape:window-height="1009"
     inkscape:window-x="-8"
     inkscape:window-y="-8"
     inkscape:window-maximized="1"
     inkscape:current-layer="svg216" /><g
     id="g3787"
     transform="translate(0,-1.2725021)"
     style="stroke:#184276;stroke-opacity:1"><g
       id="g3778"
       style="stroke:#184276;stroke-opacity:1"><g
         id="g2792"
         clip-path="url(#clipPath3768)"
         style="stroke:#184276;stroke-opacity:1"><g
           id="g2785"
           style="stroke:#184276;stroke-opacity:1"><g
             id="g2779"
             style="stroke:#184276;stroke-opacity:1"><g
               id="g2774"
               style="stroke:#184276;stroke-opacity:1"><g
                 id="g2770"
                 style="stroke:#184276;stroke-opacity:1"><path
                   style="fill:none;stroke:#184276;stroke-width:35.4331;stroke-dasharray:none;paint-order:fill markers stroke;stroke-opacity:1"
                   id="rect2733"
                   width="253.84616"
                   height="253.84616"
                   x="1.0769196"
                   y="23.07692"
                   rx="0"
                   ry="63.231663"
                   clip-path="url(#clipPath2753)"
                   inkscape:path-effect="#path-effect2757"
                   d="M 64.308582,23.07692 H 191.69142 c 35.03034,0 63.23166,28.201321 63.23166,63.231662 V 213.69142 c 0,35.03034 -28.20132,63.23166 -63.23166,63.23166 H 64.308582 c -35.030341,0 -63.2316624,-28.20132 -63.2316624,-63.23166 V 86.308582 c 0,-35.030341 28.2013214,-63.231662 63.2316624,-63.231662 z"
                   sodipodi:type="rect" /></g></g></g></g></g></g></g><g
     id="g3803"
     transform="matrix(1,0,0,-1,0,298.27952)"
     style="stroke:#404041;stroke-opacity:1"><g
       id="g3801"
       style="stroke:#404041;stroke-opacity:1"><g
         id="g3799"
         clip-path="url(#clipPath3768)"
         style="stroke:#404041;stroke-opacity:1"><g
           id="g3797"
           style="stroke:#404041;stroke-opacity:1"><g
             id="g3795"
             style="stroke:#404041;stroke-opacity:1"><g
               id="g3793"
               style="stroke:#404041;stroke-opacity:1"><g
                 id="g3791"
                 style="stroke:#404041;stroke-opacity:1"><path
                   style="fill:none;stroke:#404041;stroke-width:35.4331;stroke-dasharray:none;paint-order:fill markers stroke;stroke-opacity:1"
                   id="rect3789"
                   width="253.84616"
                   height="253.84616"
                   x="1.0769196"
                   y="23.07692"
                   rx="0"
                   ry="63.231663"
                   clip-path="url(#clipath_lpe_path-effect3807)"
                   inkscape:path-effect="#path-effect3807"
                   d="M 64.308582,23.07692 H 191.69142 c 35.03034,0 63.23166,28.201321 63.23166,63.231662 V 213.69142 c 0,35.03034 -28.20132,63.23166 -63.23166,63.23166 H 64.308582 c -35.030341,0 -63.2316624,-28.20132 -63.2316624,-63.23166 V 86.308582 c 0,-35.030341 28.2013214,-63.231662 63.2316624,-63.231662 z"
                   sodipodi:type="rect" /></g></g></g></g></g></g></g><g
     id="g3828"
     transform="rotate(180,128.28587,149.13976)"
     style="stroke:#459ed7;stroke-opacity:1"><g
       id="g3826"
       style="stroke:#459ed7;stroke-opacity:1"><g
         id="g3824"
         clip-path="url(#clipPath3768)"
         style="stroke:#459ed7;stroke-opacity:1"><g
           id="g3822"
           style="stroke:#459ed7;stroke-opacity:1"><g
             id="g3820"
             style="stroke:#459ed7;stroke-opacity:1"><g
               id="g3818"
               style="stroke:#459ed7;stroke-opacity:1"><g
                 id="g3816"
                 style="stroke:#459ed7;stroke-opacity:1"><path
                   style="fill:none;stroke:#459ed7;stroke-width:35.4331;stroke-dasharray:none;paint-order:fill markers stroke;stroke-opacity:1"
                   id="path3814"
                   width="253.84616"
                   height="253.84616"
                   x="1.0769196"
                   y="23.07692"
                   rx="0"
                   ry="63.231663"
                   clip-path="url(#clipath_lpe_path-effect3832)"
                   inkscape:path-effect="#path-effect3832"
                   d="M 64.308582,23.07692 H 191.69142 c 35.03034,0 63.23166,28.201321 63.23166,63.231662 V 213.69142 c 0,35.03034 -28.20132,63.23166 -63.23166,63.23166 H 64.308582 c -35.030341,0 -63.2316624,-28.20132 -63.2316624,-63.23166 V 86.308582 c 0,-35.030341 28.2013214,-63.231662 63.2316624,-63.231662 z"
                   sodipodi:type="rect" /></g></g></g></g></g></g></g><g
     id="g3853"
     transform="matrix(-1,0,0,1,256.57173,-1.2725021)"
     style="stroke:#2261ae;stroke-opacity:1"><g
       id="g3851"
       style="stroke:#2261ae;stroke-opacity:1"><g
         id="g3849"
         clip-path="url(#clipPath3768)"
         style="stroke:#2261ae;stroke-opacity:1"><g
           id="g3847"
           style="stroke:#2261ae;stroke-opacity:1"><g
             id="g3845"
             style="stroke:#2261ae;stroke-opacity:1"><g
               id="g3843"
               style="stroke:#2261ae;stroke-opacity:1"><g
                 id="g3841"
                 style="stroke:#2261ae;stroke-opacity:1"><path
                   style="fill:none;stroke:#2261ae;stroke-width:35.4331;stroke-dasharray:none;paint-order:fill markers stroke;stroke-opacity:1"
                   id="path3839"
                   width="253.84616"
                   height="253.84616"
                   x="1.0769196"
                   y="23.07692"
                   rx="0"
                   ry="63.231663"
                   clip-path="url(#clipath_lpe_path-effect3857)"
                   inkscape:path-effect="#path-effect3857"
                   d="M 64.308582,23.07692 H 191.69142 c 35.03034,0 63.23166,28.201321 63.23166,63.231662 V 213.69142 c 0,35.03034 -28.20132,63.23166 -63.23166,63.23166 H 64.308582 c -35.030341,0 -63.2316624,-28.20132 -63.2316624,-63.23166 V 86.308582 c 0,-35.030341 28.2013214,-63.231662 63.2316624,-63.231662 z"
                   sodipodi:type="rect" /></g></g></g></g></g></g></g><text
     xml:space="preserve"
     style="font-style:normal;font-variant:normal;font-weight:normal;font-stretch:normal;font-size:250px;font-family:'Berlin Sans FB';-inkscape-font-specification:'Berlin Sans FB';text-align:center;text-anchor:middle;fill:#459ed7;fill-opacity:1;stroke:#404041;stroke-width:0;stroke-dasharray:none;stroke-opacity:1;paint-order:fill markers stroke"
     x="127.81689"
     y="235.63232"
     id="text4401"><tspan
       sodipodi:role="line"
       id="tspan4399"
       style="font-style:normal;font-variant:normal;font-weight:normal;font-stretch:normal;font-size:250px;font-family:'Berlin Sans FB';-inkscape-font-specification:'Berlin Sans FB';fill:#459ed7;fill-opacity:1;stroke-width:0"
       x="127.81689"
       y="235.63232">H</tspan></text></svg>
